<svg width="17.188263" height="12.375916" viewBox="0 0 17.1883 12.3759" fill="none" xmlns="http://www.w3.org/2000/svg" xmlns:xlink="http://www.w3.org/1999/xlink">
   <defs/>
   <path id="Vector" d="M16.98 1.17L5.98 12.17C5.92 12.23 5.84 12.28 5.76 12.32C5.68 12.35 5.59 12.37 5.5 12.37C5.41 12.37 5.32 12.35 5.23 12.32C5.15 12.28 5.07 12.23 5.01 12.17L0.2 7.36C0.07 7.23 0 7.05 0 6.87C0 6.69 0.07 6.51 0.2 6.38C0.33 6.25 0.5 6.18 0.68 6.18C0.87 6.18 1.04 6.25 1.17 6.38L5.5 10.71L16.01 0.2C16.14 0.07 16.31 0 16.5 0C16.68 0 16.85 0.07 16.98 0.2C17.11 0.33 17.18 0.5 17.18 0.68C17.18 0.87 17.11 1.04 16.98 1.17Z" fill="#9E78CF" fill-opacity="1.000000" fill-rule="nonzero"/>
</svg> 